<?xml version="1.0" encoding="UTF-8"?>
<svg width="256" height="256" version="1.1" viewBox="0 0 67.733 67.733" xmlns="http://www.w3.org/2000/svg">
 <path d="m2.4054 7.75v56.595h62.808v-57.397l-5.3454-5.3454h-52.385z" fill="#369"/>
 <rect x="2.1167" y="2.12" width="63.5" height="63.5" rx="6.6817" ry="6.6817" fill="none" stroke="#369" stroke-linecap="round" stroke-linejoin="round" stroke-miterlimit="8" stroke-width="4.2333" style="paint-order:markers fill stroke"/>
 <text x="2.1381555" y="26.735655" fill="#ffffff" font-family="Consolas" font-size="30.868px" letter-spacing="-.52917px" stroke-width=".26458" word-spacing="0px" style="line-height:1.25" xml:space="preserve"><tspan x="2.1381555" y="26.735655" fill="#ffffff" font-family="Bahnschrift" font-size="30.868px" font-weight="bold" stroke-width=".26458">BMG</tspan></text>
 <path d="m4.5435 4.28-2.2718 5.613 2.3012 0.93544c-0.018533-0.1777-0.028363-0.35619-0.029456-0.53485 1.631e-4 -3.026 2.4533-5.4789 5.4793-5.4787 0.04462-3e-5 0.08924 4.9e-4 0.13384 2e-3l-0.13363-2.5414z" fill="#369" style="paint-order:markers fill stroke"/>
 <ellipse cx="33.873" cy="47.51" rx="29.583" ry="15.946" fill="#fff" stroke-linecap="round" stroke-linejoin="round" stroke-width=".26458"/>
 <path d="m57.857 54.746 3.4216 6.5322-11.509-1.5553z" fill="#fff"/>
 <g stroke-width=".26458" aria-label="VN">
  <path d="m17.061 40.201c-0.20291-1.1711 1.183-1.865 2.1499-1.3914 1.1084 0.39374 1.3418 1.6464 1.7384 2.6074 1.0654 2.7247 2.0162 5.4919 2.9219 8.2729 0.35028 0.99626 0.72645 1.9868 1.2099 2.9272 0.29676-2.5877 1.1536-5.0663 1.5859-7.63 0.38294-1.8076 0.71043-3.6283 1.0916-5.4349 0.3529-1.0545 1.9437-1.2178 2.4055-0.161 0.3502 0.9411-0.15042 1.9212-0.30661 2.8534-1.0283 4.2473-2.4324 8.4101-3.1569 12.727 0.05186 0.88661-0.79744 1.8427-1.7166 1.448-1.1134-0.24039-1.8643-1.2651-2.1165-2.3259-1.5738-4.05-3.0517-8.1521-5.0736-12.008-0.27324-0.61264-0.59312-1.2262-0.73294-1.8848z"/>
  <path d="m33.379 41.854c0.22691-0.9303 1.2683-1.4316 2.14-1.0585 1.1244 0.41621 1.8662 1.4213 2.7799 2.1487 2.859 2.5844 5.5594 5.3381 8.4175 7.9235-0.13246-2.7268-0.18792-5.458-0.46146-8.1762 0.02887-1.1304-0.42646-2.3978 0.1739-3.4306 0.57001-0.9225 2.0048-0.79445 2.5715 0.04823 0.53782 0.9331 0.16432 2.0404 0.26206 3.0566-3.7e-5 3.2636-0.18034 6.5438 0.18273 9.7944 0.09781 0.9599 0.36567 1.9795 0.05243 2.9179-0.74482 0.82216-1.8941-0.04694-2.4947-0.64337-1.9424-1.8216-3.7666-3.7684-5.7753-5.5207-1.8186-1.6278-3.6412-3.2892-5.1965-5.164-0.28098 0.70903-0.01854 1.5993-0.02084 2.3745 0.19478 2.54 0.64406 5.062 0.73045 7.608-0.16057 1.0678-1.4763 1.5133-2.3732 1.0562-0.95175-0.48881-0.86724-1.6955-0.84826-2.6018-0.03769-1.3263-0.0834-2.6523-0.13464-4.3713-0.05124-1.7189-0.46462-3.8707-0.0054-5.9616z"/>
 </g>
</svg>
